<svg class="svg-inline--fa fa-facebook-f fa-w-10" aria-hidden="true" data-icon="facebook-f" data-prefix="fab" focusable="false" role="img" version="1.1" viewBox="0 0 300 300" xmlns="http://www.w3.org/2000/svg">
 
    <path d="m175.75 156.92 3.0734-20.026h-19.216v-12.996c0-5.4788 2.6843-10.819 11.291-10.819h8.7359v-17.05s-7.9276-1.353-15.507-1.353c-15.825 0-26.169 9.5918-26.169 26.956v15.263h-17.591v20.026h17.591v48.413h21.65v-48.413z" fill="currentColor" stroke-width=".21613"/>

    <path d="m149.97 57.189c-0.86365 0.0135-1.5528 0.72423-1.541 1.5879v13.578c-0.03 2.1177 3.1608 2.1177 3.1309 0v-13.578c0.0121-0.88283-0.70704-1.6018-1.5898-1.5879zm-64.545 26.688c-1.1864 0.063307-2.1702 1.6096-1.0312 2.7168l9.5996 9.5996c0.61573 0.63278 1.6336 0.63202 2.248-0.001953 0.60117-0.62022 0.58591-1.6105-0.033203-2.2129l-9.5996-9.5996c-0.36906-0.37966-0.78813-0.52306-1.1836-0.50195zm129.07 0.033203c-0.4003 0.005858-0.79844 0.16312-1.0996 0.47266l-9.6016 9.6016c-1.5186 1.4762 0.73855 3.7334 2.2148 2.2148l9.6016-9.6016c0.63277-0.61573 0.63191-1.6317-0.00196-2.2461h-0.00195c-0.31012-0.30057-0.71103-0.44726-1.1113-0.44141zm-155.71 64.514c-2.1177-0.03-2.1177 3.1627 0 3.1328h13.576c0.88283 0.0121 1.6017-0.709 1.5879-1.5918-0.01347-0.86365-0.72415-1.5528-1.5879-1.541h-13.576zm168.87 0c-2.1177-0.03-2.1177 3.1627 0 3.1328h13.576c0.88283 0.0121 1.6018-0.709 1.5879-1.5918-0.0135-0.86365-0.72423-1.5528-1.5879-1.541h-13.576zm-22.811 54.859c-1.1864 0.06331-2.1722 1.6096-1.0332 2.7168l9.6016 9.6016c0.61573 0.63278 1.6316 0.63192 2.2461-0.00195 0.60114-0.62024 0.58782-1.6106-0.03125-2.2129l-9.6016-9.6016c-0.36906-0.37966-0.78618-0.52306-1.1816-0.50196zm-109.75 0.03321c-0.40031 0.00587-0.79841 0.16502-1.0996 0.47461l-9.5996 9.5996c-1.5186 1.4762 0.73855 3.7334 2.2148 2.2148l9.5996-9.5996c0.63278-0.61573 0.63202-1.6336-0.001953-2.248-0.31011-0.30058-0.71297-0.44728-1.1133-0.4414zm54.887 22.742c-0.86365 0.0135-1.5528 0.7222-1.541 1.5859v13.578c-0.03 2.1177 3.1608 2.1177 3.1309 0v-13.578c0.0121-0.88283-0.70704-1.5997-1.5898-1.5859z" color="#000000" color-rendering="auto" dominant-baseline="auto" image-rendering="auto" shape-rendering="auto" solid-color="#000000" stroke-width=".783" style="font-feature-settings:normal;font-variant-alternates:normal;font-variant-caps:normal;font-variant-ligatures:normal;font-variant-numeric:normal;font-variant-position:normal;isolation:auto;mix-blend-mode:normal;shape-padding:0;text-decoration-color:#000000;text-decoration-line:none;text-decoration-style:solid;text-indent:0;text-orientation:mixed;text-transform:none;white-space:normal"/>

</svg>
